<svg id="Capa_1" data-name="Capa 1" xmlns="http://www.w3.org/2000/svg" viewBox="0 0 512 512.02"><title>icon-balance</title><path d="M512,150.6V120.5H271.1V87.8a45.2,45.2,0,1,0-30.2,0v32.7H0v30.1H97.6L65.3,225.9H30.1V256a90.4,90.4,0,0,0,180.8,0V225.9H175.7l-32.3-75.3H241V421.7H165.7v60.2H135.6V512H376.5V481.9H346.4V421.7H271.1V150.6h97.6l-32.3,75.3H301.2V256a90.4,90.4,0,1,0,180.8.07V225.9H446.8l-32.3-75.3ZM256,30.1a15.1,15.1,0,1,1-15.1,15.1A15.1,15.1,0,0,1,256,30.1ZM120.5,316.2A60.26,60.26,0,0,1,60.3,256H180.8A60.41,60.41,0,0,1,120.5,316.2ZM98.1,225.9l22.3-52.1,22.3,52.1Zm218.1,256H195.8V451.8H316.3v30.1Zm75.3-165.7A60.26,60.26,0,0,1,331.3,256H451.8A60.35,60.35,0,0,1,391.5,316.2Zm-22.3-90.3,22.3-52.1,22.3,52.1Z" transform="translate(0 0.02)" fill="#5b5b5b"/></svg>